Simulation
nRows=28
nColumns=15
endheader
time  TH_x TH_y TH_z SC_y  SC_z  SC_x  AC_y  AC_z  AC_x  GH_y  GH_z  GH_yy  EL_x  PS_y
0.0  0.000000  0.000000  0.000000  -24.0759553476169  4.091414019167588  11.609624380704712  59.52953460588383  -1.1925624022636043  56.32434691262818  55.60738012661078  44.208544439306124  -52.662781766613655  25.64595168020424  0.000000
0.023  0.000000  0.000000  0.000000  -28.3296066485428  1.5744664495070706  12.444670588661394  58.37515324377128  -0.025204715349300136  53.499539716930215  46.18611543732177  47.75750374549129  -54.39142973741096  24.70727204516691  0.000000
0.046  0.000000  0.000000  0.000000  -29.597003062927666  3.443177428483081  12.132151186925709  57.145551950907766  -0.5850724444336085  53.42100095826714  38.07783347802598  49.65730766055388  -57.400338035762736  24.213727279682125  0.000000
0.069  0.000000  0.000000  0.000000  -24.43165389040494  2.256561813509154  8.865451011812599  55.56564368853991  -0.13295512564418938  52.685140086405305  32.06404483589331  54.97800261705434  -58.98864933746035  27.39086105120308  0.000000
0.092  0.000000  0.000000  0.000000  -13.509276665009125  6.553884050274714  1.1044096706940214  52.8570829070088  -3.587123723578676  57.32906945576319  28.311290629616213  59.28392112533516  -60.217728804336026  35.27709497192954  0.000000
0.11499999999999999  0.000000  0.000000  0.000000  11.378673671754818  15.02897126945135  -10.060596748739997  49.07855114086801  -2.929131807415469  62.73854387786725  17.280322369546347  68.68059449703526  -64.61437495372918  39.948278102878476  0.000000
0.138  0.000000  0.000000  0.000000  12.405929217998866  11.172978587995349  -10.649009887219144  62.27068699218483  -3.5847705560244765  74.15182868470022  17.49418161707432  69.10428730095533  -64.1965072170353  25.254341650667033  0.000000
0.161  0.000000  0.000000  0.000000  2.258224068383772  15.252642318276209  13.475653548890156  56.85262098582318  8.325355940583202  69.06792685971263  31.69961429496688  41.890251475449425  -70.30120776482097  3.671530262852337  0.000000
0.184  0.000000  0.000000  0.000000  -8.248116739028074  23.95097643488963  26.3832488542881  51.22487605879981  27.112473061533947  34.19188960699889  45.84367613511413  41.69877545846568  -66.48131517223764  2.6072922700732493  0.000000
0.207  0.000000  0.000000  0.000000  -38.370104082882264  12.954111637185012  9.780412826907122  75.71365941560954  22.931498423377885  11.84576564355828  50.02792348424529  67.18676025979673  -50.96909828040798  20.164668668137754  0.000000
0.22999999999999998  0.000000  0.000000  0.000000  -47.01509644436142  1.1177436228605468  -0.20014282344352877  77.42781153061449  18.39503989090288  6.3670904257537835  47.70647601154109  70.29011556467454  -55.114790769190925  29.926791410087567  0.000000
0.253  0.000000  0.000000  0.000000  -36.70037892571338  4.015195430114921  8.68784658473202  63.28207086545403  14.193511319044806  -2.355392174093095  49.86590868984728  62.257183889126104  -61.677820721526935  27.742288815423656  0.000000
0.276  0.000000  0.000000  0.000000  -29.377889868017224  4.618249192282942  19.17657826302474  58.85605893997214  5.860404202705499  -12.209214344146481  46.8391639779435  56.4331545723363  -61.32960636647555  25.00623682327325  0.000000
0.299  0.000000  0.000000  0.000000  -31.36511137260879  -0.13979022823131013  21.431936893318266  61.94625120773035  3.3028738783090295  -15.729804563800442  44.88774974457823  53.30362795530872  -62.54926209353495  23.30773858376452  0.000000
0.322  0.000000  0.000000  0.000000  -34.400960295753826  -3.1940348645423216  20.426321396229106  63.72869498096426  2.8962037741031326  -16.50447218270011  46.16208930828051  51.372617139255354  -63.637534798072494  23.915330983247454  0.000000
0.345  0.000000  0.000000  0.000000  -34.90682841274203  -3.711288366881408  19.606989501701122  64.4076880428503  2.9153737265907003  -16.534747723374945  47.719603877020944  49.38598990267821  -64.192681983659  24.209600359828798  0.000000
0.368  0.000000  0.000000  0.000000  -34.14187825030141  -3.121431516028522  19.303940397309486  64.69878724545669  2.8878569320362337  -15.434577593735176  48.76499863254023  47.889479399657056  -64.5783580016104  24.069782192693758  0.000000
0.391  0.000000  0.000000  0.000000  -33.51550585248282  -2.4331213626393753  18.92202655714573  65.44033848092515  3.0797470841945325  -13.731377474501826  49.36194892051602  47.485040224870744  -65.14370234955041  24.008328969211057  0.000000
0.414  0.000000  0.000000  0.000000  -33.21250355807014  -1.283801029804236  18.361904744136872  66.26316665658716  3.5167754006405616  -11.675719005585902  50.10898561974992  47.604642552432814  -65.75973127012549  24.29432870233199  0.000000
0.437  0.000000  0.000000  0.000000  -33.11453192481595  -0.15401647395284743  17.739041948857615  66.80861015298413  3.9970568889042912  -9.680630851461787  50.94588560406483  47.9710217996613  -66.3682794894026  24.66126507836753  0.000000
0.45999999999999996  0.000000  0.000000  0.000000  -33.05516443010774  0.5519459360506002  17.11420402718128  67.34694813560945  4.593470495577874  -8.339686057912237  51.615557197283806  48.41604563374523  -67.04387245582292  24.978205834366666  0.000000
0.483  0.000000  0.000000  0.000000  -33.048458765628745  0.9570102526985438  16.71157796526213  67.67698546108527  4.949837553108909  -7.45933940051422  52.20847635922838  48.67793450033212  -67.61317084156936  25.234538329784147  0.000000
0.506  0.000000  0.000000  0.000000  -33.026561833199615  1.2190603950168004  16.44512481686209  67.8643152454344  4.967228102195405  -6.914557554529497  52.671202532392364  48.822890603599824  -68.24319389716398  25.398941900415583  0.000000
0.529  0.000000  0.000000  0.000000  -32.96207324271084  1.3323927878194235  16.31922269771162  67.9645866251027  4.809220005968973  -6.642170555765392  53.11653152926291  48.756382812861666  -68.80101485226463  25.51512727246426  0.000000
0.552  0.000000  0.000000  0.000000  -32.870021982126616  1.328180087142622  16.22770556482647  68.02649398767586  4.514615841948209  -6.515378246697034  53.53724170186134  48.571122146148475  -69.34863789808786  25.60763949574264  0.000000
0.575  0.000000  0.000000  0.000000  -32.74650901109278  1.2412979745202128  16.172205512603433  68.09778012526465  4.180049753759306  -6.497412779058134  53.981403339143505  48.27616494868011  -69.85157728399774  25.655991354533207  0.000000
0.598  0.000000  0.000000  0.000000  -32.600940650824406  1.0999371389717683  16.117741316112802  68.17085884366938  3.813335072549993  -6.512445329392731  54.440271423009364  47.92198637551517  -70.31278863703827  25.710893204717674  0.000000
0.621  0.000000  0.000000  0.000000  -32.45760808895367  0.9487059814495616  16.03975356886909  68.28502707223814  3.4902237599031514  -6.5115174452796625  54.93380840353422  47.5274199370764  -70.73331256554067  25.772721391798395  0.000000
